<svg id="Layer_2" data-name="Layer 2" xmlns="http://www.w3.org/2000/svg" viewBox="0 0 32 32"><defs><style>.cls-1{fill:#fff;}.cls-2{fill:#2d99d1;}</style></defs><title>Behance Zap</title><circle class="cls-1" cx="16" cy="16" r="16"/><path class="cls-2" d="M1009.54,713.58a2.66,2.66,0,0,0-1.64-4.77h-4.09a0.53,0.53,0,0,0-.53.53v9.1a0.53,0.53,0,0,0,.53.53h4.09A2.94,2.94,0,0,0,1009.54,713.58Zm-1.64-3.7a1.6,1.6,0,0,1,0,3.21h-3.56v-3.21h3.56Zm0,8h-3.56v-3.77h3.56A1.88,1.88,0,1,1,1007.9,717.91Z" transform="translate(-995.28 -697.89)"/><path class="cls-2" d="M1015.39,711.2a3.89,3.89,0,1,0,2.75,6.63,0.53,0.53,0,1,0-.75-0.75,2.82,2.82,0,0,1-4.77-1.47h6.13a0.53,0.53,0,0,0,.53-0.53A3.89,3.89,0,0,0,1015.39,711.2Zm0,1.06a2.83,2.83,0,0,1,2.77,2.29h-5.55A2.83,2.83,0,0,1,1015.39,712.26Z" transform="translate(-995.28 -697.89)"/><path class="cls-2" d="M1013,710.16h4.49a0.53,0.53,0,1,0,0-1.06H1013A0.53,0.53,0,1,0,1013,710.16Z" transform="translate(-995.28 -697.89)"/></svg>