<svg id="Layer_2" data-name="Layer 2" xmlns="http://www.w3.org/2000/svg" viewBox="0 0 32 32"><defs><style>.cls-1{fill:#fff;}.cls-2{fill:#c73b6f;}</style></defs><title>Dribbble Zap</title><circle class="cls-1" cx="16" cy="16" r="16"/><g id="dribbble"><path class="cls-2" d="M888.61,708.09l-0.36-.35v0a7.9,7.9,0,0,0-8.09-1.29h0l-0.25.11a8,8,0,0,0-4.6,5.68l-0.06.31h0A7.87,7.87,0,0,0,877.9,720h0l0.24,0.19a7.94,7.94,0,0,0,7.81,1.22l0.25-.1h0A7.8,7.8,0,0,0,891,715h0l0-.52c0-.2,0-0.4,0-0.61A7.93,7.93,0,0,0,888.61,708.09Zm1.6,5.8v0a9.25,9.25,0,0,0-2.83-.41,10.17,10.17,0,0,0-2.51.31c-0.16-.43-0.32-0.84-0.5-1.24h0v0a10.16,10.16,0,0,0,4-3.54A7.07,7.07,0,0,1,890.2,713.89Zm-2.4-5.44a9.43,9.43,0,0,1-3.77,3.39,20.39,20.39,0,0,0-3.3-4.74A7.11,7.11,0,0,1,887.81,708.46Zm-7.85-1a19.61,19.61,0,0,1,3.36,4.75,9.48,9.48,0,0,1-7.18-.08A7.21,7.21,0,0,1,880,707.43Zm-4,6.46a7.21,7.21,0,0,1,.08-1,10.26,10.26,0,0,0,7.67,0q0.26,0.57.48,1.16a10.25,10.25,0,0,0-5.89,5.12A7.15,7.15,0,0,1,875.91,713.89Zm3,5.82a9.45,9.45,0,0,1,5.53-4.89,19.54,19.54,0,0,1,1,5.89A7.14,7.14,0,0,1,878.88,719.71Zm7.31,0.68a20.31,20.31,0,0,0-1-5.79,9.51,9.51,0,0,1,5.07.15A7,7,0,0,1,886.19,720.4Z" transform="translate(-867.11 -697.89)"/></g></svg>