<svg id="Layer_2" data-name="Layer 2" xmlns="http://www.w3.org/2000/svg" viewBox="0 0 33.5 33.5"><defs><style>.cls-1{fill:#fff;}.cls-2{fill:none;stroke:#fff;stroke-miterlimit:10;stroke-width:1.5px;}</style></defs><title>Dribbble Normal</title><g id="dribbble"><path class="cls-1" d="M888.607,41.09014l-0.365-.34575-0.012.02084a7.89984,7.89984,0,0,0-8.08814-1.28727l-0.01082-.01082-0.2532.11176a8.01337,8.01337,0,0,0-4.59814,5.67552l-0.06491.31169,0.01563,0.00722a7.86809,7.86809,0,0,0,2.66507,7.377l-0.00361.00842,0.2412,0.19192a7.94123,7.94123,0,0,0,7.81209,1.21514l0.2532-.09814V54.26081a7.79863,7.79863,0,0,0,4.8201-6.24519l0.02165,0.00761,0.03966-.51921c0.01563-.20193.03046-0.40384,0.03046-0.60975A7.9271,7.9271,0,0,0,888.607,41.09014Zm1.59775,5.80328v0.04005a9.246,9.246,0,0,0-2.82611-.41106,10.17144,10.17144,0,0,0-2.5052.3137c-0.15906-.42588-0.31812-0.84175-0.49921-1.24439l0.026-.01161-0.00881-.01885a10.16222,10.16222,0,0,0,3.95913-3.53806A7.06716,7.06716,0,0,1,890.20471,46.89342Zm-2.39822-5.43628a9.42981,9.42981,0,0,1-3.76561,3.38982,20.3918,20.3918,0,0,0-3.29806-4.74237A7.108,7.108,0,0,1,887.80649,41.45714Zm-7.855-1.02844a19.60955,19.60955,0,0,1,3.36457,4.7504,9.48116,9.48116,0,0,1-7.17907-.07535A7.21206,7.21206,0,0,1,879.95152,40.4287Zm-4.04,6.46472a7.20829,7.20829,0,0,1,.07652-0.98517,10.25725,10.25725,0,0,0,7.66746-.0052q0.256,0.56549.48157,1.16426a10.2488,10.2488,0,0,0-5.89181,5.12255A7.15258,7.15258,0,0,1,875.91148,46.89342Zm2.96873,5.8197a9.45179,9.45179,0,0,1,5.52964-4.89463,19.541,19.541,0,0,1,.99519,5.89181A7.14346,7.14346,0,0,1,878.8802,52.71312Zm7.30569,0.68429a20.31355,20.31355,0,0,0-1.01281-5.79285,9.50811,9.50811,0,0,1,5.06849.153A7.01918,7.01918,0,0,1,886.18589,53.39741Z" transform="translate(-866.3602 -30.14363)"/></g><circle class="cls-2" cx="16.75" cy="16.75" r="16"/></svg>