<svg id="Layer_2" data-name="Layer 2" xmlns="http://www.w3.org/2000/svg" viewBox="0 0 33 33"><defs><style>.cls-1{fill:#fff;}.cls-2{fill:none;stroke:#fff;stroke-miterlimit:10;}</style></defs><title>Google Normal</title><path class="cls-1" d="M1056.35,38.89h-3.82a5.7,5.7,0,0,0-3.94,1.25,3.77,3.77,0,0,0-1.33,2.79,3.29,3.29,0,0,0,3.46,3.28c0.22,0,.45,0,0.67,0l0,0.08a1.73,1.73,0,0,0-.18.74,2.1,2.1,0,0,0,.59,1.37l0,0h-0.06a8.88,8.88,0,0,0-3.91,1,3,3,0,0,0-1.6,2.55c0,1.49,1.38,3,4.48,3,3.6,0,5.48-2,5.48-3.94,0-1.45-.85-2.16-1.75-2.92l-0.76-.59a1.13,1.13,0,0,1-.53-0.89,1.42,1.42,0,0,1,.55-1l0,0a3.54,3.54,0,0,0,1.75-3,3.5,3.5,0,0,0-1.48-2.82h1.31l1.09-.69A0.08,0.08,0,0,0,1056.35,38.89ZM1051.72,54c-2.19,0-3.66-1-3.66-2.55a2.27,2.27,0,0,1,1.79-2.15A8.41,8.41,0,0,1,1052,49a3.36,3.36,0,0,1,.48,0c1.53,1.09,2.27,1.66,2.27,2.76C1054.78,53.16,1053.61,54,1051.72,54Zm0-8.39c-1.84,0-2.6-2.42-2.6-3.71a2.37,2.37,0,0,1,.46-1.55,1.93,1.93,0,0,1,1.46-.69c1.69,0,2.62,2.27,2.62,3.84A1.9,1.9,0,0,1,1051.7,45.63Z" transform="translate(-1037.5 -30.39)"/><path class="cls-1" d="M1061.7,46.37h-2v-2a0.08,0.08,0,0,0-.08-0.08h-0.86a0.08,0.08,0,0,0-.08.08v2h-2a0.08,0.08,0,0,0-.08.08v0.88a0.08,0.08,0,0,0,.08.08h2v2a0.08,0.08,0,0,0,.08.08h0.86a0.08,0.08,0,0,0,.08-0.08v-2h2a0.08,0.08,0,0,0,.08-0.08V46.45A0.08,0.08,0,0,0,1061.7,46.37Z" transform="translate(-1037.5 -30.39)"/><circle class="cls-2" cx="16.5" cy="16.5" r="16"/></svg>