<svg id="Layer_2" data-name="Layer 2" xmlns="http://www.w3.org/2000/svg" viewBox="0 0 48 46"><defs><style>.cls-1{fill:#fff;}</style></defs><title>Sarad Logo - 1 (Small)</title><path class="cls-1" d="M100.79,59.23a22.37,22.37,0,0,0,2.82,3.14,0.94,0.94,0,0,1,.18.75c-0.13,3.32,1.72,4.21,3.85,5.17,2,0.89,4,1.57,6,2.38s4,1.69,6.06,2.53a4.45,4.45,0,0,0,2.1.75c0.54,0,.9-0.16.87-0.79-0.09-2.2.15-4.41-.16-6.61A4.43,4.43,0,0,0,120,63.08c-1.37-.72-2.87-1.11-4.29-1.74-1.64-.73-3.35-1.31-5-2a53.28,53.28,0,0,1-5.93-2.61,10.49,10.49,0,0,1-4.09-4.4,2.45,2.45,0,0,1-.2-1.15c0-2.54.17-5.1,0-7.62s2.38-4.54,5-4a19.93,19.93,0,0,1,3.1,1.19c3.46,1.39,6.88,2.89,10.37,4.22,1.69,0.64,3.31,1.63,5.24,1.53a11.13,11.13,0,0,0,3.63-.6c2.18-.87,4.32-1.82,6.56-2.57,1.68-.56,3.32-1.38,5-2.07,1.83-.75,3.56-1.82,5.71-1.6a3.74,3.74,0,0,1,3.4,3.55c0,2.41-.05,4.82,0,7.23a5.51,5.51,0,0,1-1.12,3.49,0.55,0.55,0,0,0,.06.9,3.33,3.33,0,0,1,1.06,2.83c-0.05,2.18-.08,4.36,0,6.53a6.88,6.88,0,0,1-2.48,5.32c-1.45,1.44-3.39,2-5.17,2.78-2.81,1.25-5.7,2.34-8.54,3.53-1.34.56-1.64,0.42-1.6-1,0-.9-0.38-2,0.8-2.48,0.93-.34,1.8-0.8,2.73-1.12,2.15-.73,4.21-1.67,6.3-2.52,0.75-.31,1.49-0.64,2.22-1a4.16,4.16,0,0,0,2.32-3,23.09,23.09,0,0,0,.16-6.68,0.91,0.91,0,0,0-1.38-.86c-1.64.58-3.28,1.17-4.86,1.9s-3.49,1.47-5.24,2.16c-0.67.27-1.28,0.67-2,.89s-1.05.13-1.12-.76c-0.13-1.69,0-2.88,2.06-3.51,3-.92,5.76-2.36,8.69-3.44a5.28,5.28,0,0,0,3.8-4.74,43.57,43.57,0,0,0,.13-5.13c0-1.47-.51-1.81-1.84-1.26-3.15,1.29-6.27,2.64-9.42,3.91-2.39,1-4.78,2-7.25,2.72a9.28,9.28,0,0,1-5.88-.41c-3.83-1.37-7.47-3.19-11.26-4.64A34.31,34.31,0,0,0,104.86,43a0.86,0.86,0,0,0-1.22.94,32.23,32.23,0,0,0,.2,6.6A4.8,4.8,0,0,0,107,54c2.17,0.9,4.34,1.8,6.54,2.64a68.44,68.44,0,0,1,8.28,3.62,7.69,7.69,0,0,1,4.28,6.83c0.07,1.87.14,3.75,0.12,5.62a4.89,4.89,0,0,1-.91,3.23,3.5,3.5,0,0,1-2.54,1.4c-2.21.24-4.1-.64-6-1.45l-7.21-3.09a47.33,47.33,0,0,1-5-2.18,9.58,9.58,0,0,1-3-2.92,5.88,5.88,0,0,1-1-3.82c0.06-1.5,0-3,0-4.51Z" transform="translate(-100.43 -31.37)"/><path class="cls-1" d="M124.42,31.46c2.14-.31,3.94.56,5.76,1.31,2.51,1,5,2.1,7.52,3.15,0.32,0.13.79,0.12,0.75,0.62a0.64,0.64,0,0,1-.76.47,11.48,11.48,0,0,0-2.27.91,3,3,0,0,1-2.28-.15,49.23,49.23,0,0,0-6.66-2.63,8.62,8.62,0,0,0-6,.71c-1.71.76-3.44,1.45-5.17,2.14a2.11,2.11,0,0,1-1.54,0,11.36,11.36,0,0,0-2.57-1,0.66,0.66,0,0,1-.63-0.53c0-.41.38-0.42,0.69-0.55,2.64-1.09,5.23-2.3,7.9-3.3C120.82,32,122.54,31.07,124.42,31.46Z" transform="translate(-100.43 -31.37)"/></svg>