<svg id="Layer_2" data-name="Layer 2" xmlns="http://www.w3.org/2000/svg" viewBox="0 0 182 174.41"><defs><style>.cls-1{opacity:0.25;}.cls-2{fill:#fff;}</style></defs><title>Sarad Logo - 2 (large)</title><g class="cls-1"><path class="cls-2" d="M495.37,313.45c2.95,4.57,7,8.05,10.7,11.92a3.56,3.56,0,0,1,.69,2.83c-0.49,12.59,6.53,15.95,14.58,19.62,7.44,3.39,15.25,6,22.84,9s15.33,6.39,23,9.61c2.6,1.09,4.82,3.07,8,2.83,2-.15,3.41-0.6,3.31-3-0.35-8.35.57-16.72-.61-25.08-0.88-6.27-4.28-10.36-9.68-13.19-5.2-2.73-10.89-4.21-16.25-6.59-6.21-2.76-12.71-5-18.93-7.68-7.51-3.25-15.4-5.76-22.47-9.91A39.77,39.77,0,0,1,495,287.2a9.3,9.3,0,0,1-.75-4.38c0-9.63.66-19.32-.17-28.88s9-17.21,18.87-15c4.19,0.92,7.87,2.95,11.76,4.5,13.13,5.26,26.09,11,39.31,16,6.42,2.44,12.55,6.19,19.88,5.8,4.69-.25,9.27-0.49,13.76-2.28,8.27-3.29,16.39-6.89,24.87-9.73,6.37-2.13,12.57-5.24,18.87-7.83,6.94-2.85,13.52-6.91,21.65-6.08,6.9,0.7,12.87,6.5,12.88,13.45,0,9.13-.21,18.27.09,27.4a20.87,20.87,0,0,1-4.26,13.22c-1.07,1.5-1,2.31.23,3.4,3.3,2.84,4.11,6.51,4,10.74-0.19,8.25-.32,16.52,0,24.77,0.34,8.5-3.77,14.59-9.42,20.19S653.71,360,646.94,363c-10.67,4.74-21.62,8.85-32.39,13.4-5.07,2.14-6.21,1.6-6.08-3.9,0.08-3.41-1.44-7.74,3-9.4,3.51-1.3,6.82-3,10.34-4.24,8.14-2.76,16-6.32,23.9-9.57,2.85-1.17,5.66-2.43,8.43-3.85A15.77,15.77,0,0,0,663,334a87.56,87.56,0,0,0,.59-25.32c-0.38-3.54-2.5-4.22-5.23-3.24-6.21,2.22-12.45,4.42-18.42,7.19-6.52,3-13.22,5.56-19.87,8.21-2.55,1-4.84,2.54-7.47,3.38-2.83.91-4,.49-4.25-2.86-0.48-6.41.14-10.92,7.81-13.3,11.24-3.49,21.85-9,32.93-13,8.76-3.23,13.24-8.69,14.4-18,0.81-6.51.46-13,.51-19.45,0-5.55-1.92-6.85-7-4.78-11.94,4.88-23.77,10-35.73,14.82-9.07,3.66-18.13,7.49-27.47,10.32-7.36,2.22-14.9,1.11-22.3-1.54-14.52-5.19-28.31-12.08-42.68-17.6-6-2.31-11.66-5.52-18-7-3.29-.73-4.63.81-4.63,3.56,0,8.36-.93,16.8.78,25,1.33,6.42,5.87,10.63,11.82,13.09,8.24,3.41,16.47,6.82,24.81,10,10.67,4.06,21.39,8.29,31.4,13.71,9.85,5.34,15.78,13.87,16.22,25.92,0.26,7.1.54,14.21,0.44,21.31-0.06,4.29-.43,8.55-3.46,12.27a13.26,13.26,0,0,1-9.61,5.31c-8.39.92-15.54-2.41-22.83-5.51-9.13-3.88-18.23-7.81-27.35-11.7-6.39-2.72-13.07-4.8-19.12-8.26-4.71-2.69-8.25-6.65-11.38-11.06S494,336.3,494.18,331c0.22-5.69.05-11.4,0.05-17.11Z" transform="translate(-494 -207.79)"/><path class="cls-2" d="M585,208.15c8.13-1.19,14.94,2.13,21.83,5,9.53,3.9,19,8,28.49,11.94,1.21,0.51,3,.47,2.85,2.37-0.11,1.7-1.86,1.68-2.9,1.79-3.24.32-5.66,2.51-8.63,3.43a11.4,11.4,0,0,1-8.66-.56,186.67,186.67,0,0,0-25.26-10c-7.87-2.3-15.49-.57-22.87,2.71-6.47,2.87-13,5.48-19.61,8.11a8,8,0,0,1-5.85-.14c-3.25-1.2-6.15-3.27-9.74-3.69-0.92-.11-2.36-0.76-2.38-2,0-1.54,1.42-1.61,2.6-2.09,10-4.13,19.82-8.71,29.94-12.49C571.31,210,577.82,206.68,585,208.15Z" transform="translate(-494 -207.79)"/></g></svg>