<svg id="Layer_2" data-name="Layer 2" xmlns="http://www.w3.org/2000/svg" viewBox="0 0 32 32"><defs><style>.cls-1{fill:#fff;}.cls-2{fill:#00aced;}</style></defs><title>Twitter Zap</title><circle class="cls-1" cx="16" cy="16" r="16"/><path class="cls-2" d="M933.81,708.93a0.08,0.08,0,0,0-.09,0,6.4,6.4,0,0,1-1.5.45,3.33,3.33,0,0,0,1.17-1.64,0.08,0.08,0,0,0-.12-0.09,6.42,6.42,0,0,1-2,.77,3.33,3.33,0,0,0-5.67,3,9.18,9.18,0,0,1-6.54-3.36,0.08,0.08,0,0,0-.07,0,0.08,0.08,0,0,0-.06,0,3.33,3.33,0,0,0,.8,4.28,3.18,3.18,0,0,1-1.16-.38,0.08,0.08,0,0,0-.12.07v0a3.34,3.34,0,0,0,2.34,3.18,3.2,3.2,0,0,1-1.11,0,0.08,0.08,0,0,0-.09.1,3.33,3.33,0,0,0,2.89,2.3,6.4,6.4,0,0,1-3.81,1.24,6.59,6.59,0,0,1-.77,0,0.08,0.08,0,0,0-.08.05,0.08,0.08,0,0,0,0,.09,9.32,9.32,0,0,0,14.35-7.85q0-.19,0-0.38a6.64,6.64,0,0,0,1.61-1.68A0.08,0.08,0,0,0,933.81,708.93Z" transform="translate(-909.83 -697.89)"/></svg>